HIERARCHY
ROOT joint_Root
{
	OFFSET 0.0 0.0 0.0
	CHANNELS 6 Xposition Yposition Zposition Zrotation Xrotation Yrotation 
	JOINT Hips
	{
		OFFSET -0.726466 93.3139 -2.00062
		CHANNELS 6 Xposition Yposition Zposition Zrotation Xrotation Yrotation 
		JOINT Spine
		{
			OFFSET 15.7357 0.0 0.0
			CHANNELS 6 Xposition Yposition Zposition Zrotation Xrotation Yrotation 
			JOINT Chest
			{
				OFFSET 8.98455 -0.406207 0.0
				CHANNELS 6 Xposition Yposition Zposition Zrotation Xrotation Yrotation 
				JOINT Neck
				{
					OFFSET 16.3773 0.0 0.0
					CHANNELS 6 Xposition Yposition Zposition Zrotation Xrotation Yrotation 
					JOINT Head
					{
						OFFSET 6.45672 0.0 0.0
						CHANNELS 6 Xposition Yposition Zposition Zrotation Xrotation Yrotation 
						End Site
						{
							OFFSET 0.0 0.0 0.0
						}
					}
				}
				JOINT Shoulder_L
				{
					OFFSET 12.9942 -0.242716 4.98039
					CHANNELS 6 Xposition Yposition Zposition Zrotation Xrotation Yrotation 
					JOINT UpperArm_L
					{
						OFFSET 5.34809 0.0 0.0
						CHANNELS 6 Xposition Yposition Zposition Zrotation Xrotation Yrotation 
						JOINT LowerArm_L
						{
							OFFSET 24.3286 1.87007e-05 0.0
							CHANNELS 6 Xposition Yposition Zposition Zrotation Xrotation Yrotation 
							JOINT Hand_L
							{
								OFFSET 22.2916 0.0 0.0
								CHANNELS 6 Xposition Yposition Zposition Zrotation Xrotation Yrotation 
								End Site
								{
									OFFSET 0.0 0.0 0.0
								}
							}
						}
					}
				}
				JOINT Shoulder_R
				{
					OFFSET 12.9945 -0.242716 -4.98039
					CHANNELS 6 Xposition Yposition Zposition Zrotation Xrotation Yrotation 
					JOINT UpperArm_R
					{
						OFFSET -5.34813 0.0 0.0
						CHANNELS 6 Xposition Yposition Zposition Zrotation Xrotation Yrotation 
						JOINT LowerArm_R
						{
							OFFSET -24.3289 0.000322201 0.0
							CHANNELS 6 Xposition Yposition Zposition Zrotation Xrotation Yrotation 
							JOINT Hand_R
							{
								OFFSET -22.2915 -0.000108084 0.0
								CHANNELS 6 Xposition Yposition Zposition Zrotation Xrotation Yrotation 
								End Site
								{
									OFFSET 0.0 0.0 0.0
								}
							}
						}
					}
				}
			}
		}
		JOINT UpperLeg_L
		{
			OFFSET -2.19248 -6.46944 0.0
			CHANNELS 6 Xposition Yposition Zposition Zrotation Xrotation Yrotation 
			JOINT LowerLeg_L
			{
				OFFSET 39.0811 0.0 -1.23785e-05
				CHANNELS 6 Xposition Yposition Zposition Zrotation Xrotation Yrotation 
				JOINT Foot_L
				{
					OFFSET 40.9854 0.0 -1.26872e-05
					CHANNELS 6 Xposition Yposition Zposition Zrotation Xrotation Yrotation 
					JOINT Toes_L
					{
						OFFSET 11.7543 0.0 0.0
						CHANNELS 6 Xposition Yposition Zposition Zrotation Xrotation Yrotation 
						End Site
						{
							OFFSET 0.0 0.0 0.0
						}
					}
				}
			}
		}
		JOINT UpperLeg_R
		{
			OFFSET -2.19251 6.46944 0.0
			CHANNELS 6 Xposition Yposition Zposition Zrotation Xrotation Yrotation 
			JOINT LowerLeg_R
			{
				OFFSET -39.0811 -0.00228153 -0.0401928
				CHANNELS 6 Xposition Yposition Zposition Zrotation Xrotation Yrotation 
				JOINT Foot_R
				{
					OFFSET -40.9854 0.0 0.0
					CHANNELS 6 Xposition Yposition Zposition Zrotation Xrotation Yrotation 
					JOINT Toes_R
					{
						OFFSET -11.7543 0.0 0.0
						CHANNELS 6 Xposition Yposition Zposition Zrotation Xrotation Yrotation 
						End Site
						{
							OFFSET 0.0 0.0 0.0
						}
					}
				}
			}
		}
	}
}
MOTION
Frames:	9
Frame Time:	0.0333333
0.000000 0.000000 0.000000 0.000000 0.000000 -0.000000 -0.939696 92.314300 -0.434449 88.065300 -0.537517 4.300880 15.735700 0.000005 -0.000001 86.370300 86.550400 -86.219800 8.984550 -0.406207 -0.000000 -0.880151 -0.448034 0.297317 16.377300 -0.000001 -0.000001 5.300930 -1.877590 0.354896 6.456720 -0.000001 -0.000000 2.809430 -1.104370 0.340765 12.994200 -0.242716 4.980390 -86.733200 -10.230600 -72.184400 5.348090 -0.000007 -0.000001 -83.413600 -30.328200 -93.610400 24.328600 0.000019 0.000005 18.525100 1.097390 -86.728800 22.291600 -0.000001 0.000005 25.184900 5.569480 -9.661550 12.994500 -0.242716 -4.980390 90.878800 -2.629420 -71.510900 -5.348130 -0.000001 -0.000004 -74.026200 -27.776200 -100.472000 -24.328900 0.000322 -0.000009 22.105300 6.153110 -75.218100 -22.291500 -0.000108 -0.000004 26.392700 5.352760 -1.460360 -2.192480 -6.469440 -0.000000 -175.347000 -5.963280 -2.073120 39.081100 -0.000007 -0.000012 -0.111109 0.267294 22.571700 40.985400 -0.000006 -0.000013 -0.442551 3.279610 -66.402500 11.754300 -0.000000 0.000003 -0.000028 -0.000343 -16.591000 -2.192510 6.469440 -0.000001 179.882000 12.890400 -179.902000 -39.081100 -0.002282 -0.040193 -0.016199 0.054913 19.569800 -40.985400 0.000008 0.000006 4.098340 6.643080 -65.969200 -11.754300 -0.000006 -0.000006 -0.007503 -0.083930 -19.990300
0.000000 0.000000 0.000000 0.000000 0.000000 -0.000000 -0.953478 92.313200 -0.454904 88.058000 -0.537193 4.305670 15.735700 0.000005 -0.000001 86.358700 86.537700 -86.206800 8.984550 -0.406207 -0.000000 -0.854760 -0.451126 0.300327 16.377300 -0.000001 -0.000001 5.221730 -1.869950 0.363627 6.456720 -0.000001 -0.000000 2.932840 -1.092480 0.322741 12.994200 -0.242716 4.980390 -86.758500 -10.169900 -72.216100 5.348090 -0.000007 -0.000001 -83.213000 -30.456500 -93.469400 24.328600 0.000019 0.000005 18.535300 1.099820 -86.723500 22.291600 -0.000001 0.000005 25.040600 5.568230 -9.598000 12.994500 -0.242716 -4.980390 90.865400 -2.589470 -71.513100 -5.348130 -0.000001 -0.000004 -73.829500 -27.836500 -100.363000 -24.328900 0.000322 -0.000009 22.243200 6.200530 -75.207300 -22.291500 -0.000108 -0.000004 26.368500 5.350560 -1.394080 -2.192480 -6.469440 -0.000000 -175.323000 -5.958590 -2.092220 39.081100 -0.000007 -0.000012 -0.112360 0.270032 22.592300 40.985400 -0.000006 -0.000013 -0.451504 3.308200 -66.398300 11.754300 -0.000000 0.000003 -0.000032 -0.000380 -16.592400 -2.192510 6.469440 -0.000001 179.887000 12.904900 -179.915000 -39.081100 -0.002282 -0.040193 -0.017948 0.059811 19.576300 -40.985400 0.000008 0.000006 4.054000 6.679140 -65.952200 -11.754300 -0.000006 -0.000006 -0.007587 -0.084623 -20.018600
0.000000 0.000000 0.000000 0.000000 0.000000 -0.000000 -0.954840 92.319800 -0.488431 88.034000 -0.553011 4.232010 15.735700 0.000005 -0.000001 86.320000 86.539100 -86.158100 8.984550 -0.406207 -0.000000 -0.857932 -0.456349 0.320273 16.377300 -0.000001 -0.000001 5.136670 -1.872080 0.344243 6.456720 -0.000001 -0.000000 2.920320 -1.088890 0.306644 12.994200 -0.242716 4.980390 -86.763800 -10.149700 -72.210700 5.348090 -0.000007 -0.000001 -83.073000 -30.571900 -93.322900 24.328600 0.000019 0.000005 18.494600 1.088820 -86.748600 22.291600 -0.000001 0.000005 25.053400 5.567440 -9.558010 12.994500 -0.242716 -4.980390 90.852900 -2.554820 -71.530800 -5.348130 -0.000001 -0.000004 -73.569100 -27.969100 -100.248000 -24.328900 0.000322 -0.000009 22.244300 6.219870 -75.164100 -22.291500 -0.000108 -0.000004 26.449600 5.353010 -1.468050 -2.192480 -6.469440 -0.000000 -175.309000 -5.949030 -2.190420 39.081100 -0.000007 -0.000012 -0.112342 0.270041 22.588300 40.985400 -0.000006 -0.000013 -0.458717 3.281990 -66.369400 11.754300 -0.000000 0.000003 -0.000032 -0.000381 -16.592400 -2.192510 6.469440 -0.000001 179.934000 12.923400 180.000000 -39.081100 -0.002282 -0.040193 -0.017435 0.058505 19.534200 -40.985400 0.000008 0.000006 4.059370 6.704290 -65.902400 -11.754300 -0.000006 -0.000006 -0.007393 -0.083002 -19.952400
0.000000 0.000000 0.000000 0.000000 0.000000 -0.000000 -0.933608 92.328700 -0.523222 88.062300 -0.571032 4.228100 15.735700 0.000005 -0.000001 86.634000 86.515800 -86.472100 8.984550 -0.406207 -0.000000 -0.809024 -0.421162 0.320689 16.377300 -0.000001 -0.000001 5.027060 -1.906150 0.353625 6.456720 -0.000001 -0.000000 2.910860 -1.156030 0.198720 12.994200 -0.242716 4.980390 -86.808100 -10.033800 -72.251100 5.348090 -0.000007 -0.000001 -82.883400 -30.616400 -93.148300 24.328600 0.000019 0.000005 18.463000 1.050280 -86.857600 22.291600 -0.000001 0.000005 24.997900 5.566010 -9.485800 12.994500 -0.242716 -4.980390 90.831800 -2.485440 -71.488500 -5.348130 -0.000001 -0.000004 -73.276700 -28.085300 -100.087000 -24.328900 0.000322 -0.000009 22.181400 6.179390 -75.211900 -22.291500 -0.000108 -0.000004 26.398800 5.353950 -1.496270 -2.192480 -6.469440 -0.000000 -175.354000 -6.037020 -2.185840 39.081100 -0.000007 -0.000012 -0.112136 0.270337 22.528800 40.985400 -0.000006 -0.000013 -0.437632 3.286100 -66.316400 11.754300 -0.000000 0.000003 -0.000027 -0.000333 -16.590600 -2.192510 6.469440 -0.000001 179.892000 12.905800 179.990000 -39.081100 -0.002282 -0.040193 -0.016479 0.055879 19.512000 -40.985400 0.000008 0.000006 4.080450 6.755240 -65.879200 -11.754300 -0.000006 -0.000006 -0.007612 -0.084833 -20.027200
0.000000 0.000000 0.000000 0.000000 0.000000 -0.000000 -0.928476 92.335900 -0.564600 88.077200 -0.589795 4.177550 15.735700 0.000005 -0.000001 86.630200 86.500800 -86.458200 8.984550 -0.406207 -0.000000 -0.778985 -0.424108 0.340952 16.377300 -0.000001 -0.000001 4.937190 -1.924600 0.345349 6.456720 -0.000001 -0.000000 2.790880 -1.181800 0.086249 12.994200 -0.242716 4.980390 -86.831200 -9.933850 -72.207200 5.348090 -0.000007 -0.000001 -82.748300 -30.605300 -92.717200 24.328600 0.000019 0.000005 17.954100 0.872633 -87.309200 22.291600 -0.000001 0.000005 24.736300 5.566400 -9.505450 12.994500 -0.242716 -4.980390 90.810500 -2.418080 -71.463400 -5.348130 -0.000001 -0.000004 -72.815700 -28.223600 -99.675100 -24.328900 0.000322 -0.000009 22.165000 6.028520 -75.545000 -22.291500 -0.000108 -0.000004 26.417100 5.347730 -1.309380 -2.192480 -6.469440 -0.000000 -175.395000 -5.914770 -2.243380 39.081100 -0.000007 -0.000012 -0.111078 0.268333 22.487400 40.985400 -0.000006 -0.000013 -0.450898 3.208940 -66.272200 11.754300 -0.000000 0.000003 -0.000032 -0.000380 -16.592400 -2.192510 6.469440 -0.000001 179.880000 12.905100 179.907000 -39.081100 -0.002282 -0.040193 -0.019363 0.064096 19.490200 -40.985400 0.000008 0.000006 3.974600 6.775700 -65.810800 -11.754300 -0.000006 -0.000006 -0.007413 -0.083168 -19.959200
0.000000 0.000000 0.000000 0.000000 0.000000 -0.000000 -0.900430 92.349100 -0.610402 88.070000 -0.633766 4.113310 15.735700 0.000005 -0.000001 86.640900 86.478700 -86.445200 8.984550 -0.406207 -0.000000 -0.734860 -0.427085 0.388481 16.377300 -0.000001 -0.000001 4.789950 -1.932800 0.326510 6.456720 -0.000001 -0.000000 2.713580 -1.150270 -0.008145 12.994200 -0.242716 4.980390 -86.880000 -9.778640 -72.206900 5.348090 -0.000007 -0.000001 -82.275700 -30.722400 -91.724600 24.328600 0.000019 0.000005 16.771700 0.506522 -88.320200 22.291600 -0.000001 0.000005 24.542000 5.560440 -9.208500 12.994500 -0.242716 -4.980390 90.775900 -2.304710 -71.387800 -5.348130 -0.000001 -0.000004 -72.124100 -28.281300 -98.828700 -24.328900 0.000322 -0.000009 21.883400 5.612040 -76.317800 -22.291500 -0.000108 -0.000004 26.662700 5.347120 -1.290930 -2.192480 -6.469440 -0.000000 -175.417000 -5.961180 -2.302360 39.081100 -0.000007 -0.000012 -0.110647 0.268072 22.428400 40.985400 -0.000006 -0.000013 -0.438395 3.172640 -66.216900 11.754300 -0.000000 0.000003 -0.000036 -0.000424 -16.594100 -2.192510 6.469440 -0.000001 179.903000 12.929000 179.829000 -39.081100 -0.002282 -0.040193 -0.016213 0.055342 19.442600 -40.985400 0.000008 0.000006 4.101310 6.822860 -65.771500 -11.754300 -0.000006 -0.000006 -0.007539 -0.084231 -20.002600
0.000000 0.000000 0.000000 0.000000 0.000000 -0.000000 -0.879727 92.345600 -0.642821 88.077600 -0.657810 4.110740 15.735700 0.000005 -0.000001 86.677600 86.425000 -86.471800 8.984550 -0.406207 -0.000000 -0.627258 -0.429357 0.409152 16.377300 -0.000001 -0.000001 4.618000 -1.927310 0.334190 6.456720 -0.000001 -0.000000 2.620860 -1.125280 -0.034053 12.994200 -0.242716 4.980390 -86.945600 -9.585000 -72.231300 5.348090 -0.000007 -0.000001 -81.392800 -30.922400 -89.883200 24.328600 0.000019 0.000005 14.209300 -0.063416 -90.251600 22.291600 -0.000001 0.000005 23.870400 5.555370 -8.962310 12.994500 -0.242716 -4.980390 90.711600 -2.100590 -71.279600 -5.348130 -0.000001 -0.000004 -71.168000 -28.353900 -97.250700 -24.328900 0.000322 -0.000009 21.490200 4.826670 -77.937900 -22.291500 -0.000108 -0.000004 26.641000 5.341110 -1.112140 -2.192480 -6.469440 -0.000000 -175.434000 -6.025300 -2.357210 39.081100 -0.000007 -0.000012 -0.109742 0.265232 22.477800 40.985400 -0.000006 -0.000013 -0.413944 3.212150 -66.212900 11.754300 -0.000000 0.000003 -0.000025 -0.000312 -16.589800 -2.192510 6.469440 -0.000001 179.869000 12.839600 179.787000 -39.081100 -0.002282 -0.040193 -0.020145 0.066378 19.471000 -40.985400 0.000008 0.000006 3.924750 6.821380 -65.733500 -11.754300 -0.000006 -0.000006 -0.007532 -0.084167 -20.000000
0.000000 0.000000 0.000000 0.000000 0.000000 -0.000000 -0.857712 92.357000 -0.685766 88.059700 -0.697017 4.107460 15.735700 0.000005 -0.000001 86.935800 86.374900 -86.714800 8.984550 -0.406207 -0.000000 -0.525450 -0.403465 0.439929 16.377300 -0.000001 -0.000001 4.424780 -1.901030 0.304847 6.456720 -0.000001 -0.000000 2.629140 -1.146950 0.060944 12.994200 -0.242716 4.980390 -87.051500 -9.272810 -72.273400 5.348090 -0.000007 -0.000001 -79.486400 -31.041500 -86.651500 24.328600 0.000019 0.000005 10.461700 -0.575021 -93.114100 22.291600 -0.000001 0.000005 23.544500 5.553990 -8.895920 12.994500 -0.242716 -4.980390 90.614100 -1.799740 -71.155600 -5.348130 -0.000001 -0.000004 -69.888400 -28.329900 -94.644900 -24.328900 0.000322 -0.000009 20.862300 3.611390 -80.616600 -22.291500 -0.000108 -0.000004 25.969700 5.329850 -0.780870 -2.192480 -6.469440 -0.000000 -175.433000 -6.070340 -2.357390 39.081100 -0.000007 -0.000012 -0.109254 0.264631 22.433600 40.985400 -0.000006 -0.000013 -0.400398 3.194660 -66.170000 11.754300 -0.000000 0.000003 -0.000034 -0.000408 -16.593500 -2.192510 6.469440 -0.000001 179.900000 12.837600 179.775000 -39.081100 -0.002282 -0.040193 -0.015849 0.054375 19.422100 -40.985400 0.000008 0.000006 4.046830 6.822000 -65.694900 -11.754300 -0.000006 -0.000006 -0.007552 -0.084332 -20.006700
0.000000 0.000000 0.000000 0.000000 0.000000 -0.000000 -0.824317 92.345900 -0.723524 88.079700 -0.714964 4.130610 15.735700 0.000005 -0.000001 87.206300 86.326100 -86.995600 8.984550 -0.406207 -0.000000 -0.426199 -0.373110 0.419813 16.377300 -0.000001 -0.000001 4.320670 -1.921020 0.363201 6.456720 -0.000001 -0.000000 2.679410 -1.133500 0.119738 12.994200 -0.242716 4.980390 -87.209400 -8.865640 -72.449100 5.348090 -0.000007 -0.000001 -76.087500 -30.929800 -81.632700 24.328600 0.000019 0.000005 5.201330 -0.619306 -96.781600 22.291600 -0.000001 0.000005 23.877300 5.568870 -9.629500 12.994500 -0.242716 -4.980390 90.481500 -1.407740 -71.115900 -5.348130 -0.000001 -0.000004 -67.996200 -28.260100 -90.724900 -24.328900 0.000322 -0.000009 20.084200 2.122950 -84.216400 -22.291500 -0.000108 -0.000004 25.195700 5.322520 -0.567931 -2.192480 -6.469440 -0.000000 -175.464000 -6.201900 -2.413520 39.081100 -0.000007 -0.000012 -0.107514 0.259128 22.533900 40.985400 -0.000006 -0.000013 -0.345777 3.301540 -66.190300 11.754300 -0.000000 0.000003 -0.000026 -0.000320 -16.590100 -2.192510 6.469440 -0.000001 179.831000 12.782200 179.711000 -39.081100 -0.002282 -0.040193 -0.023385 0.075325 19.522300 -40.985400 0.000008 0.000006 3.795860 6.838930 -65.667400 -11.754300 -0.000006 -0.000006 -0.007468 -0.083631 -19.978100
